<svg width="1200" height="900" viewBox="0 0 1200 900" fill="none" xmlns="http://www.w3.org/2000/svg">
  <rect width="1200" height="900" rx="40" fill="#EEF4FA"/>
  <rect x="86" y="104" width="1028" height="692" rx="30" fill="#F8FAFC" stroke="#D4E4F2" stroke-width="2"/>
  <rect x="136" y="164" width="348" height="244" rx="24" fill="#1E3A5F"/>
  <rect x="516" y="164" width="548" height="112" rx="20" fill="#E8EEF5"/>
  <rect x="516" y="296" width="548" height="112" rx="20" fill="#F4E7C5"/>
  <rect x="136" y="446" width="928" height="80" rx="18" fill="#E8EEF5"/>
  <rect x="136" y="548" width="928" height="80" rx="18" fill="#EDF3F8"/>
  <rect x="136" y="650" width="460" height="88" rx="18" fill="#F8FAFC" stroke="#D7E3F0" stroke-width="2"/>
  <rect x="622" y="650" width="442" height="88" rx="18" fill="#F8FAFC" stroke="#D7E3F0" stroke-width="2"/>
  <circle cx="232" cy="244" r="48" fill="#B4862A" fill-opacity="0.3"/>
  <circle cx="598" cy="219" r="16" fill="#1E3A5F"/>
  <circle cx="652" cy="219" r="16" fill="#B4862A"/>
  <circle cx="706" cy="219" r="16" fill="#1E3A5F" fill-opacity="0.4"/>
  <path d="M196 324H408" stroke="#D4A84B" stroke-width="6" stroke-linecap="round"/>
  <path d="M196 352H350" stroke="#D4A84B" stroke-opacity="0.7" stroke-width="6" stroke-linecap="round"/>
  <path d="M558 342H930" stroke="#8A98AA" stroke-width="12" stroke-linecap="round"/>
  <path d="M558 376H844" stroke="#8A98AA" stroke-opacity="0.55" stroke-width="12" stroke-linecap="round"/>
  <path d="M196 486H922" stroke="#90A4B8" stroke-width="14" stroke-linecap="round"/>
  <path d="M196 588H998" stroke="#A7B8C9" stroke-width="14" stroke-linecap="round"/>
  <path d="M188 704H428" stroke="#1E3A5F" stroke-width="12" stroke-linecap="round"/>
  <path d="M676 704H948" stroke="#1E3A5F" stroke-width="12" stroke-linecap="round"/>
</svg>
